<svg width="600" height="400" viewBox="0 0 600 400" fill="none" xmlns="http://www.w3.org/2000/svg">
  <!-- Background elements -->
  <circle cx="450" cy="100" r="80" fill="#f0f4f8" class="light-element" />
  <circle cx="450" cy="100" r="80" fill="#2d3748" class="dark-element" style="display:none" />
  
  <circle cx="100" cy="320" r="60" fill="#e6f7ff" class="light-element" />
  <circle cx="100" cy="320" r="60" fill="#1a365d" class="dark-element" style="display:none" />
  
  <!-- Books stack -->
  <rect x="120" y="200" width="140" height="30" rx="2" fill="#805ad5" />
  <rect x="130" y="170" width="140" height="30" rx="2" fill="#3182ce" />
  <rect x="125" y="140" width="140" height="30" rx="2" fill="#38a169" />
  <rect x="135" y="110" width="140" height="30" rx="2" fill="#e53e3e" />
  
  <!-- Computer screen -->
  <rect x="320" y="140" width="180" height="120" rx="4" fill="#2d3748" class="light-element" />
  <rect x="320" y="140" width="180" height="120" rx="4" fill="#4a5568" class="dark-element" style="display:none" />
  
  <rect x="330" y="150" width="160" height="90" rx="2" fill="#edf2f7" class="light-element" />
  <rect x="330" y="150" width="160" height="90" rx="2" fill="#1a202c" class="dark-element" style="display:none" />
  
  <!-- Code symbols -->
  <text x="350" y="180" font-family="monospace" font-size="14" class="light-element" fill="#2d3748">
    <tspan x="350" dy="0">&lt;div&gt;</tspan>
    <tspan x="360" dy="20">  function() {</tspan>
    <tspan x="370" dy="20">    return 🚀;</tspan>
    <tspan x="360" dy="20">  }</tspan>
    <tspan x="350" dy="20">&lt;/div&gt;</tspan>
  </text>
  
  <text x="350" y="180" font-family="monospace" font-size="14" class="dark-element" fill="#e2e8f0" style="display:none">
    <tspan x="350" dy="0">&lt;div&gt;</tspan>
    <tspan x="360" dy="20">  function() {</tspan>
    <tspan x="370" dy="20">    return 🚀;</tspan>
    <tspan x="360" dy="20">  }</tspan>
    <tspan x="350" dy="20">&lt;/div&gt;</tspan>
  </text>
  
  <!-- Brain icon -->
  <g transform="translate(430, 300) scale(0.7)">
    <circle cx="0" cy="0" r="40" fill="#f6e05e" />
    <path d="M-15,-5 C-15,5 -5,15 5,15 C15,15 25,5 25,-5 C25,-15 15,-25 5,-25 C-5,-25 -15,-15 -15,-5 Z" fill="#ed8936" />
    <path d="M-10,0 C-10,5 -5,10 0,10 C5,10 10,5 10,0 C10,-5 5,-10 0,-10 C-5,-10 -10,-5 -10,0 Z" fill="#e53e3e" />
    <path d="M-20,-10 L-30,-20 M-15,5 L-25,15 M5,15 L5,25 M25,-5 L35,-5" stroke="#2d3748" stroke-width="2" class="light-element" />
    <path d="M-20,-10 L-30,-20 M-15,5 L-25,15 M5,15 L5,25 M25,-5 L35,-5" stroke="#e2e8f0" stroke-width="2" class="dark-element" style="display:none" />
  </g>
  
  <!-- Lightbulb -->
  <g transform="translate(200, 70)">
    <path d="M0,0 C-15,0 -25,10 -25,25 C-25,40 -5,50 0,60 C5,50 25,40 25,25 C25,10 15,0 0,0 Z" fill="#f6e05e" />
    <rect x="-5" y="60" width="10" height="5" fill="#718096" />
    <rect x="-5" y="65" width="10" height="5" fill="#4a5568" />
  </g>
  
  <!-- Learning path -->
  <path d="M100,320 C150,300 200,350 250,330 C300,310 350,340 400,320 C450,300 500,350 550,330" 
        stroke="#4299e1" stroke-width="3" stroke-dasharray="5,5" fill="none" class="light-element" />
  <path d="M100,320 C150,300 200,350 250,330 C300,310 350,340 400,320 C450,300 500,350 550,330" 
        stroke="#90cdf4" stroke-width="3" stroke-dasharray="5,5" fill="none" class="dark-element" style="display:none" />
        
  <!-- Learning milestones -->
  <circle cx="100" cy="320" r="5" fill="#3182ce" />
  <circle cx="250" cy="330" r="5" fill="#3182ce" />
  <circle cx="400" cy="320" r="5" fill="#3182ce" />
  <circle cx="550" cy="330" r="5" fill="#3182ce" />
  
  <!-- Theme detection script to toggle light/dark elements -->
  <style>
    @media (prefers-color-scheme: dark) {
      .light-element { display: none; }
      .dark-element { display: block; }
    }
    
    /* Docusaurus specific theme detection */
    :root[data-theme='dark'] .light-element { display: none; }
    :root[data-theme='dark'] .dark-element { display: block; }
    :root[data-theme='light'] .light-element { display: block; }
    :root[data-theme='light'] .dark-element { display: none; }
  </style>
  
  <script>
    // Additional JavaScript to handle Docusaurus theme switching
    document.addEventListener('DOMContentLoaded', function() {
      const observer = new MutationObserver(function(mutations) {
        mutations.forEach(function(mutation) {
          if (mutation.attributeName === 'data-theme') {
            const theme = document.documentElement.getAttribute('data-theme');
            const lightElements = document.querySelectorAll('.light-element');
            const darkElements = document.querySelectorAll('.dark-element');
            
            if (theme === 'dark') {
              lightElements.forEach(el => el.style.display = 'none');
              darkElements.forEach(el => el.style.display = 'block');
            } else {
              lightElements.forEach(el => el.style.display = 'block');
              darkElements.forEach(el => el.style.display = 'none');
            }
          }
        });
      });
      
      observer.observe(document.documentElement, { attributes: true });
    });
  </script>
</svg> 